# xmcd CD database file
#
# Track frame offsets:
#	150
#	20215
#	45942
#	63852
#	82447
#	106480
#	126642
#	150527
#	174795
#	195042
#	215857
#
# Disc length: 3048 seconds
#
# Revision: 0
# Processed by: cddbd v1.5.1PL0 Copyright (c) Steve Scherf et al.
# Submitted via: CDex 1.51
#
DISCID=950be60b
DTITLE=FEEL SO BAD - IN TRANCE
DYEAR=1996
DGENRE=JPop
TTITLE0=F・S・B
TTITLE1=したたかになれ
TTITLE2=勝負だ ! !
TTITLE3=THEME OF D.K.
TTITLE4=UTOPIAN AND REALIST
TTITLE5=いつも心にFIRE
TTITLE6=オタンコナス
TTITLE7=我は愚かなり主よ救いたまえ
TTITLE8=AM8:58
TTITLE9=IN TRANCE
TTITLE10=よかった
EXTD=YEAR: 1996
EXTT0=
EXTT1=
EXTT2=
EXTT3=
EXTT4=
EXTT5=
EXTT6=
EXTT7=
EXTT8=
EXTT9=
EXTT10=
PLAYORDER=
